HIERARCHY
ROOT Hips
{
	OFFSET 0.00000 0.00000 0.00000
	CHANNELS 6 Xposition Yposition Zposition Zrotation Yrotation Xrotation 
	JOINT LHipJoint
	{
		OFFSET 0 0 0
		CHANNELS 3 Zrotation Yrotation Xrotation
		JOINT LeftHip
		{
			OFFSET 1.76014 -1.80163 0.38499
			CHANNELS 3 Zrotation Yrotation Xrotation
			JOINT LeftKnee
			{
				OFFSET 2.46817 -6.78126 0.00000
				CHANNELS 3 Zrotation Yrotation Xrotation
				JOINT LeftAnkle
				{
					OFFSET 2.79348 -7.67503 0.00000
					CHANNELS 3 Zrotation Yrotation Xrotation
					JOINT LeftToe
					{
						OFFSET 0.09421 -0.25885 1.91403
						CHANNELS 3 Zrotation Yrotation Xrotation
						End Site
						{
							OFFSET 0.00000 -0.00000 0.97975
						}
					}
				}
			}
		}
	}
	JOINT RHipJoint
	{
		OFFSET 0 0 0
		CHANNELS 3 Zrotation Yrotation Xrotation
		JOINT RightHip
		{
			OFFSET -1.77926 -1.80163 0.38499
			CHANNELS 3 Zrotation Yrotation Xrotation
			JOINT RightKnee
			{
				OFFSET -2.51996 -6.92353 0.00000
				CHANNELS 3 Zrotation Yrotation Xrotation
				JOINT RightAnkle
				{
					OFFSET -2.76109 -7.58603 0.00000
					CHANNELS 3 Zrotation Yrotation Xrotation
					JOINT RightToe
					{
						OFFSET -0.08067 -0.22163 1.86812
						CHANNELS 3 Zrotation Yrotation Xrotation
						End Site
						{
							OFFSET -0.00000 -0.00000 0.95558
						}
					}
				}
			}
		}
	}
	JOINT lowerback
	{
		OFFSET 0 0 0
		CHANNELS 3 Zrotation Yrotation Xrotation
		JOINT Chest
		{
			OFFSET 0.05537 1.92033 -0.03713
			CHANNELS 3 Zrotation Yrotation Xrotation
			JOINT Chest2
			{
				OFFSET 0.04452 1.90073 0.10860
				CHANNELS 3 Zrotation Yrotation Xrotation
				JOINT lowerneck
				{
					OFFSET 0 0 0
					CHANNELS 3 Zrotation Yrotation Xrotation
					JOINT Neck
					{
						OFFSET 0.00903 1.74649 0.02074
						CHANNELS 3 Zrotation Yrotation Xrotation
						JOINT Head
						{
							OFFSET -0.08608 1.67844 -0.12081
							CHANNELS 3 Zrotation Yrotation Xrotation
							End Site
							{
								OFFSET -0.03521 1.83380 -0.05059
							}
						}
					}
				}
				JOINT LeftCollar
				{
					OFFSET 0 0 0
					CHANNELS 3 Zrotation Yrotation Xrotation
					JOINT LeftShoulder
					{
						OFFSET 3.28197 0.84325 -0.19106
CHANNELS 3 Zrotation Xrotation Yrotation
						JOINT LeftElbow
						{
OFFSET 0 -5.243180 -0.000000
CHANNELS 3 Zrotation Xrotation Yrotation
							JOINT LeftWrist
							{
OFFSET 0 -2.989990 0.000000
CHANNELS 3 Zrotation Xrotation Yrotation
								JOINT lhand
								{
									OFFSET 0 0 0
CHANNELS 3 Zrotation Xrotation Yrotation
									JOINT LFingers
									{
OFFSET 0 -0.726740 0.000000
CHANNELS 3 Zrotation Xrotation Yrotation
										End Site
										{
OFFSET 0 -0.585920 0.000000
										}
									}
								}
								JOINT LThumb
								{
OFFSET 0 0.000000 0.000000
CHANNELS 3 Zrotation Xrotation Yrotation
									End Site
									{
OFFSET 0 -0.594870 0.594870
									}
								}
							}
						}
					}
				}
				JOINT RightCollar
				{
					OFFSET 0 0 0
					CHANNELS 3 Zrotation Yrotation Xrotation
					JOINT RightShoulder
					{
						OFFSET -3.30963 0.78377 0.14264
CHANNELS 3 Zrotation Xrotation Yrotation
						JOINT RightElbow
						{
OFFSET 0 -5.370450 0.000000
CHANNELS 3 Zrotation Xrotation Yrotation
							JOINT RightWrist
							{
OFFSET 0 -2.927920 0.000000
CHANNELS 3 Zrotation Xrotation Yrotation
								JOINT rhand
								{
									OFFSET 0 0 0
CHANNELS 3 Zrotation Xrotation Yrotation
									JOINT RFingers
									{
OFFSET 0 -0.784500 0.000000
CHANNELS 3 Zrotation Xrotation Yrotation
										End Site
										{
OFFSET 0 -0.632480 0.000000
										}
									}
								}
								JOINT RThumb
								{
OFFSET 0 0.000000 0.000000
CHANNELS 3 Zrotation Xrotation Yrotation
									End Site
									{
OFFSET 0 -0.642140 0.642140
									}
								}
							}
						}
					}
				}
			}
		}
	}
}
MOTION
Frames: 12
Frame Time: 0.008333333333333333
1.156500 17.995200 0.227600 1.662800 -21.523300 11.562300 0.000000 0.000000 0.000000 -23.607800 -11.954600 -16.625300 1.837700 8.519600 24.303700 -1.475300 24.543300 -23.265900 0.002600 0.331900 0.911900 0.000000 0.000000 0.000000 9.687000 19.114400 -25.214600 -1.876100 -8.603100 24.561500 0.001500 -2.660100 -3.702200 -1.402500 7.491300 -21.179200 -0.956700 -3.337600 2.095700 4.493200 -4.647200 5.150300 5.105200 -2.491500 4.622100 -1.960800 -8.341800 12.639900 -2.138400 -11.313300 4.019800 0.150100 -5.617600 -0.828600 -0.000000 0.000000 0.000000 3.811300 -40.970500 -65.288400 153.347700 -37.845600 110.715000 -23.169600 -3.179500 -29.352500 0.000000 0.000000 0.000000 -7.125000 0.000000 0.000000 -53.183100 51.679900 11.468900 -0.000000 0.000000 0.000000 -8.477100 -8.910700 23.686300 -60.991000 -56.568300 -35.166900 14.122200 34.906800 -2.969900 0.000000 0.000000 0.000000 7.125000 0.000000 -0.000000 29.753300 26.257600 15.609300
1.103729 17.992420 0.269586 1.507164 -21.655810 11.133195 0.000000 0.000000 0.000000 -23.482809 -11.618436 -15.970316 1.848802 8.543721 24.378162 -1.438399 24.517343 -23.604601 0.003020 0.350993 0.964548 0.000000 0.000000 0.000000 10.244457 18.913770 -24.579148 -1.898410 -8.651150 24.710056 -0.008561 -2.362409 -3.922387 -1.260478 7.116809 -20.062018 -1.196016 -3.543807 2.184579 4.434337 -4.883782 4.347017 5.199227 -2.591385 3.766984 -2.756034 -7.570881 7.877274 -4.364867 -9.993779 12.996567 -0.939799 -5.210087 2.736037 0.000000 0.000000 0.000000 4.038102 -40.111600 -63.618206 151.239948 -39.806114 109.393074 -22.579960 -3.651237 -29.099252 0.000000 0.000000 0.000000 -7.125000 0.000000 0.000000 -52.496599 51.609493 11.123479 0.000000 0.000000 0.000000 -8.202228 -8.310659 24.323635 -60.357345 -56.404393 -34.638617 13.588016 34.703359 -3.473924 0.000000 0.000000 0.000000 7.125000 0.000000 0.000000 29.278494 25.840877 15.620059
1.060021 17.990102 0.305770 1.441945 -21.937270 10.739067 0.000000 0.000000 0.000000 -23.472976 -11.138858 -15.517158 1.869952 8.589677 24.520040 -1.445471 24.598634 -23.720860 0.000000 0.009308 0.025452 0.000000 0.000000 0.000000 10.626572 18.752768 -24.187790 -1.947186 -8.755172 25.032492 -0.025324 -1.788134 -4.207164 -1.003566 6.374559 -17.875153 -1.172234 -3.280575 2.033526 4.007576 -4.487709 3.551301 4.761688 -2.355081 2.939480 -1.045081 -6.689684 2.004520 -8.732380 -7.722903 25.382929 -3.089306 -4.575614 7.122316 0.000000 0.000000 0.000000 4.007026 -40.030699 -63.242043 148.197360 -42.388266 107.392049 -23.514970 -7.878021 -29.441128 0.000000 0.000000 0.000000 -7.125000 0.000000 0.000000 -53.530282 51.678916 11.589048 0.000000 0.000000 0.000000 -7.266858 -7.801110 23.690245 -60.533667 -56.450511 -34.785481 13.783544 35.016452 -3.580503 0.000000 0.000000 0.000000 7.125000 0.000000 0.000000 29.377869 25.732989 15.778262
1.021076 17.984166 0.337619 1.255019 -22.190491 10.302342 0.000000 0.000000 0.000000 -23.354250 -10.528041 -14.997716 1.886156 8.624720 24.628311 -1.347752 24.305334 -24.070603 0.001673 0.260625 0.716035 0.000000 0.000000 0.000000 11.130087 18.746174 -23.552820 -1.973804 -8.811282 25.206828 -0.033241 -1.542895 -4.373036 -1.059857 6.543972 -18.371682 -1.129257 -3.416563 1.502697 3.991761 -4.660533 3.130159 4.697079 -2.430869 2.811572 -1.164674 -4.948035 -1.323922 -11.646306 -4.170720 35.078787 -4.594536 -3.512450 11.363993 0.000000 0.000000 0.000000 4.527679 -40.205647 -61.533561 145.082370 -44.752659 105.244514 -23.867512 -10.675480 -29.765432 0.000000 0.000000 0.000000 -7.125000 0.000000 0.000000 -54.101533 51.838621 12.047231 0.000000 0.000000 0.000000 -7.251185 -8.068403 24.441342 -60.873450 -56.538204 -35.068809 13.934853 34.726327 -3.573756 0.000000 0.000000 0.000000 7.125000 0.000000 0.000000 29.476976 25.729349 15.851753
0.998403 17.973231 0.345648 1.240558 -22.408672 9.869921 0.000000 0.000000 0.000000 -23.384428 -10.105851 -14.706940 1.923275 8.704272 24.874635 -1.281848 24.118266 -24.327960 0.003926 0.402429 1.105774 0.000000 0.000000 0.000000 11.354276 18.770006 -23.179072 -2.016339 -8.900002 25.483102 -0.038998 -1.326570 -4.469212 -1.145769 6.796918 -19.115040 -1.033737 -3.504969 1.181391 3.962846 -4.770768 2.806911 4.600541 -2.475626 2.656147 -0.914055 -3.106202 -1.474292 -13.723738 -0.685536 40.593277 -5.711529 -2.309226 14.129478 0.000000 0.000000 0.000000 5.008189 -40.612481 -60.088904 142.787932 -46.328375 103.606692 -24.160800 -11.837827 -29.744676 0.000000 0.000000 0.000000 -7.125000 0.000000 0.000000 -54.306488 51.770886 12.013457 0.000000 0.000000 0.000000 -7.350031 -8.398824 24.986590 -61.191194 -56.619048 -35.334070 13.365691 33.808724 -3.223388 0.000000 0.000000 0.000000 7.125000 0.000000 0.000000 29.198008 26.079463 15.370096
0.988678 17.957837 0.347002 1.382613 -22.562557 9.379919 0.000000 0.000000 0.000000 -23.612225 -9.607573 -14.405654 1.940550 8.741081 24.988797 -1.330615 24.198667 -24.007760 0.000000 -0.017307 -0.047482 0.000000 0.000000 0.000000 11.365457 18.697002 -22.994382 -2.097688 -9.066563 26.003826 -0.049167 -0.953399 -4.655187 -1.330389 7.304003 -20.619255 -0.722110 -3.365345 0.520240 3.684236 -4.594471 3.037593 4.090889 -2.381672 3.200961 -0.545137 -1.592144 -0.397035 -14.624974 1.897949 43.311285 -6.236638 -1.258405 15.620908 0.000000 0.000000 0.000000 5.054346 -41.674323 -59.709250 141.177403 -47.356625 102.431844 -23.961025 -11.512988 -29.709829 0.000000 0.000000 0.000000 -7.125000 0.000000 0.000000 -54.121259 51.783330 11.966085 0.000000 0.000000 0.000000 -7.124707 -8.938675 24.655516 -61.901794 -56.795745 -35.928002 12.045982 33.616974 -4.953399 0.000000 0.000000 0.000000 7.125000 0.000000 0.000000 27.921462 24.599119 15.627811
0.987173 17.945144 0.324520 1.703231 -22.588018 9.014809 0.000000 0.000000 0.000000 -23.923984 -9.099977 -14.570531 1.985271 8.835253 25.281297 -1.268007 23.833579 -23.843861 0.000749 -0.171614 -0.471512 0.000000 0.000000 0.000000 11.094820 18.699562 -22.985368 -2.150187 -9.172161 26.335335 -0.054661 -0.898521 -4.841612 -1.241719 7.065530 -19.909750 -0.697083 -3.258434 0.246991 3.366258 -4.452119 3.262585 3.728091 -2.308454 3.548017 0.189952 -0.672230 1.190250 -15.201780 3.358319 44.690455 -6.652001 -0.544637 16.252672 0.000000 0.000000 0.000000 5.022594 -42.385922 -59.816463 139.964519 -48.090892 101.534367 -23.516667 -9.433073 -27.991024 0.000000 0.000000 0.000000 -7.125000 0.000000 0.000000 -52.228897 50.662684 9.567135 0.000000 0.000000 0.000000 -6.671904 -9.445420 24.147881 -62.006685 -56.821374 -36.015756 13.353652 33.902354 -4.124509 0.000000 0.000000 0.000000 7.125000 0.000000 0.000000 28.965742 25.271347 15.854998
0.994540 17.933106 0.297210 1.898055 -22.526327 8.731067 0.000000 0.000000 0.000000 -24.101505 -8.551428 -14.780901 2.015740 8.898789 25.479210 -1.220503 23.389252 -23.360414 0.003343 -0.362613 -0.996358 0.000000 0.000000 0.000000 10.906776 18.691836 -23.117300 -2.229290 -9.328218 26.827448 -0.060037 -0.783001 -4.986223 -1.252155 7.093607 -19.993306 -1.070313 -3.384934 0.213366 3.374890 -4.631633 3.726872 3.922195 -2.422318 4.096251 0.747172 -0.000443 2.866779 -15.371494 4.230936 44.714769 -6.719195 -0.039206 16.012114 0.000000 0.000000 0.000000 5.289003 -42.461933 -59.397494 141.113944 -47.395910 102.385144 -23.432506 -9.307208 -28.497349 0.000000 0.000000 0.000000 -7.125000 0.000000 0.000000 -52.612482 51.034720 10.268788 0.000000 0.000000 0.000000 -6.670789 -10.025853 24.384087 -61.807157 -56.772542 -35.848854 12.872399 33.647635 -3.782742 0.000000 0.000000 0.000000 7.125000 0.000000 0.000000 28.737905 25.607349 15.427048
1.003740 17.923150 0.259075 1.753252 -22.371239 8.782927 0.000000 0.000000 0.000000 -23.849284 -8.191690 -15.404572 2.091620 9.054440 25.965712 -1.128148 22.813349 -23.087936 0.002895 -0.346441 -0.951850 0.000000 0.000000 0.000000 11.026677 18.744495 -23.271204 -2.243600 -9.356000 26.915600 -0.059053 -0.942894 -5.039240 -1.244494 7.073383 -19.932950 -1.068929 -3.130728 0.560695 3.589124 -4.308320 4.043834 4.170099 -2.273359 4.223182 0.800446 0.222481 3.864861 -14.468277 4.215089 44.968570 -6.300226 0.101315 15.889246 0.000000 0.000000 0.000000 4.461184 -42.211031 -60.443866 142.712633 -46.378003 103.552245 -23.962129 -10.107172 -28.809947 0.000000 0.000000 0.000000 -7.125000 0.000000 0.000000 -53.296071 51.159872 10.686486 0.000000 0.000000 0.000000 -6.773834 -10.156486 23.208335 -61.788316 -56.767870 -35.833068 13.299328 33.716060 -2.586850 0.000000 0.000000 0.000000 7.125000 0.000000 0.000000 29.318246 26.653906 14.983946
1.019234 17.921149 0.229854 1.799727 -22.250589 8.961685 0.000000 0.000000 0.000000 -23.828353 -8.043793 -15.929117 2.111851 9.095270 26.093848 -1.114426 22.551684 -22.667622 0.009095 -0.615875 -1.692441 0.000000 0.000000 0.000000 10.856869 18.741124 -23.594744 -2.239324 -9.347712 26.889109 -0.054195 -1.022881 -4.900901 -1.313169 7.258432 -20.483415 -0.258732 -2.371065 0.409323 3.092244 -3.317688 4.887674 3.213997 -1.750934 5.026488 2.076956 -0.182114 3.566834 -12.920592 3.049486 45.721946 -5.996784 -0.008864 16.169522 0.000000 0.000000 0.000000 3.428200 -42.700726 -63.397915 143.696523 -45.720773 104.260595 -24.115209 -9.929797 -28.171474 0.000000 0.000000 0.000000 -7.125000 0.000000 0.000000 -52.841068 50.685490 9.787613 0.000000 0.000000 0.000000 -5.856141 -10.810966 20.396149 -61.846602 -56.782282 -35.881781 13.407904 34.484178 -3.529358 0.000000 0.000000 0.000000 7.125000 0.000000 0.000000 29.148043 25.802557 15.559443
1.033201 17.919396 0.205165 2.027325 -22.041725 9.007473 0.000000 0.000000 0.000000 -24.034096 -8.296671 -16.035416 2.094134 9.059494 25.981525 -1.157167 22.652895 -22.414379 0.011161 -0.680648 -1.870414 0.000000 0.000000 0.000000 10.529570 18.642674 -23.920579 -2.263874 -9.395288 27.039860 -0.054717 -1.096953 -4.965553 -1.259884 7.115223 -20.057144 0.153632 -1.879743 0.366396 2.732235 -2.665356 5.218767 2.630777 -1.402144 5.318925 3.144688 -0.771622 4.215871 -11.660044 1.620316 46.852590 -5.836654 -0.275497 16.463891 0.000000 0.000000 0.000000 2.866894 -42.410096 -65.097301 144.822372 -44.938501 105.061312 -24.531159 -11.025592 -28.318845 0.000000 0.000000 0.000000 -7.125000 0.000000 0.000000 -53.284851 50.715976 9.972831 0.000000 0.000000 0.000000 -5.057253 -10.372340 18.435779 -61.822074 -56.776240 -35.861335 13.585414 34.418902 -2.706394 0.000000 0.000000 0.000000 7.125000 0.000000 0.000000 29.473779 26.528563 15.192249
1.041508 17.920860 0.186358 1.986743 -22.009316 9.125196 0.000000 0.000000 0.000000 -23.962769 -8.535449 -16.150152 2.093955 9.059022 25.980135 -1.177047 22.772550 -22.459873 0.012160 -0.713034 -1.959515 0.000000 0.000000 0.000000 10.491351 18.815529 -24.028371 -2.252794 -9.373889 26.972055 -0.049017 -1.307464 -4.878496 -1.215564 6.993729 -19.696667 -0.006366 -2.127312 0.461613 3.114404 -3.022928 5.544097 3.101656 -1.604827 5.659016 2.527429 -0.540599 5.042323 -10.798372 1.638888 47.101018 -5.315234 -0.267714 16.427318 0.000000 0.000000 0.000000 2.775317 -42.052538 -63.961054 145.822564 -44.215680 105.763366 -24.281333 -10.643439 -27.861456 0.000000 0.000000 0.000000 -7.125000 0.000000 0.000000 -52.692753 50.438008 9.348965 0.000000 0.000000 0.000000 -5.382371 -10.386704 18.915453 -61.483167 -56.692389 -35.577945 13.936908 34.845241 -3.044823 0.000000 0.000000 0.000000 7.125000 0.000000 0.000000 29.614148 26.202848 15.557856
